<svg xmlns="http://www.w3.org/2000/svg" xmlns:xlink="http://www.w3.org/1999/xlink" width="2000" zoomAndPan="magnify" viewBox="0 0 1500 1499.999933" height="2000" preserveAspectRatio="xMidYMid meet" version="1.0"><defs><clipPath id="849e407cff"><path d="M 452 136.117188 L 1467.84375 136.117188 L 1467.84375 521 L 452 521 Z M 452 136.117188 " clip-rule="nonzero"/></clipPath><clipPath id="974ee5eeca"><path d="M 32.097656 634 L 1089.414062 634 L 1089.414062 1363.867188 L 32.097656 1363.867188 Z M 32.097656 634 " clip-rule="nonzero"/></clipPath></defs><g clip-path="url(#849e407cff)"><path fill="#ffffff" d="M 1467.84375 282.953125 C 1467.84375 414.214844 1361.453125 520.597656 1230.1875 520.597656 L 458.691406 520.597656 C 454.316406 502.636719 452.023438 483.855469 452.023438 464.519531 C 452.023438 333.253906 558.40625 226.871094 689.664062 226.871094 L 1230.1875 226.871094 C 1305.980469 226.871094 1373.511719 191.375 1417.015625 136.117188 C 1437.765625 162.429688 1453.066406 193.242188 1461.171875 226.871094 C 1465.546875 244.828125 1467.84375 263.613281 1467.84375 282.953125 " fill-opacity="1" fill-rule="nonzero"/></g><g clip-path="url(#974ee5eeca)"><path fill="#ffffff" d="M 1089.191406 781.316406 C 1089.191406 872.921875 1037.363281 952.445312 961.390625 992.066406 C 928.527344 1009.230469 891.167969 1018.933594 851.546875 1018.933594 L 523.910156 1018.933594 C 303.460938 1018.933594 116.851562 1163.992188 54.398438 1363.882812 C 39.902344 1317.496094 32.097656 1268.175781 32.097656 1217.019531 C 32.097656 1146.554688 46.910156 1079.546875 73.617188 1018.933594 C 149.835938 845.96875 322.769531 725.199219 523.910156 725.199219 L 851.546875 725.199219 C 927.335938 725.199219 994.863281 689.710938 1038.371094 634.453125 C 1059.117188 660.765625 1074.378906 691.574219 1082.519531 725.199219 C 1086.894531 743.195312 1089.191406 761.980469 1089.191406 781.316406 " fill-opacity="1" fill-rule="nonzero"/></g></svg>